<svg width="47" height="47" viewBox="0 0 47 47" fill="none" xmlns="http://www.w3.org/2000/svg">
<path fill-rule="evenodd" clip-rule="evenodd" d="M7.76144 41.6269V39.1524H38.8375C38.8375 40.0444 38.9562 41.8219 38.6474 42.4727C38.2853 43.2366 37.5377 43.8715 36.6506 43.8715H9.94828C8.825 43.8715 7.76144 42.7524 7.76144 41.6269ZM17.3142 36.5053V22.8086C17.3142 22.5429 18.27 22.5648 18.7368 22.5044C20.4342 22.2852 23.6861 22.3294 25.1752 22.8895C25.6537 23.0698 25.9512 23.2062 26.3469 23.4443C28.3829 24.6697 29.2847 26.7235 29.2847 29.1964C29.2847 30.8893 28.7065 33.1744 27.6304 34.2757L27.0265 34.8808C26.6341 35.2285 26.4051 35.3823 25.9077 35.6605C24.9931 36.1723 23.3131 36.6069 21.9762 36.678C21.7933 36.6878 21.5839 36.6757 21.3984 36.6757C21.1013 36.6761 21.0344 36.7229 20.8197 36.7343C20.5567 36.7483 20.5381 36.6848 20.2509 36.6761C20.0464 36.6697 19.8234 36.6776 19.6163 36.678C18.8612 36.6788 17.6302 36.5053 17.3142 36.5053ZM9.54538 31.6712L8.33669 31.6138V36.5627C8.33669 36.6954 8.29663 36.7354 8.16396 36.7354H5.51716C5.3845 36.7354 5.34406 36.6954 5.34406 36.5627V22.8086C5.34406 22.555 6.27609 22.5554 6.74929 22.4873C7.54072 22.3736 9.19048 22.4061 10.0632 22.4061C11.4438 22.4061 12.6971 22.8672 13.4678 23.4904C14.1757 24.0623 14.8976 25.2835 14.8976 26.5496C14.8976 27.5141 14.8431 28.2625 14.438 29.0826C14.2123 29.5388 14.1572 29.6341 13.8488 29.9897L13.3567 30.4758C12.5437 31.189 11.0666 31.6712 9.54538 31.6712ZM35.2118 28.3332H40.8516V30.9229H35.2118V36.7354H31.7013V22.4061H41.2545V24.9958H35.2118V28.3332ZM7.76144 5.48667C7.76144 4.59281 8.35785 3.82974 9.12132 3.45141C9.38362 3.3214 9.6943 3.24202 10.0632 3.24202H29.2847V8.24912C29.2847 9.55571 30.0127 10.733 30.6797 11.4001C31.3563 12.0763 32.5619 12.7955 33.8882 12.7955H38.8375V19.9313H7.76144V5.48667ZM5.34406 5.37177V19.9313C3.34015 19.9313 1.80491 19.6028 0.842643 21.1846C0.744376 21.3456 0.567871 21.8229 0.567871 22.0603V36.9656C0.567871 38.0798 1.66847 39.1524 3.09978 39.1524H5.34406V41.7996C5.34406 43.1637 6.03609 44.18 6.88346 45.0372C7.77656 45.9409 9.05404 46.346 10.4086 46.346H36.1899C38.1545 46.346 39.8731 45.4302 40.7367 43.6988C41.0001 43.1697 41.2545 42.5869 41.2545 41.7996V39.1524H43.4988C45.065 39.1524 46.0885 38.0764 46.0885 36.5053V22.5784C46.0885 21.0073 45.065 19.9313 43.4988 19.9313H41.2545V10.436C41.2545 10.2621 40.8471 9.94198 40.722 9.81726L32.291 1.38625C32.1636 1.25851 31.8197 0.825378 31.6435 0.825378H9.71811C8.59823 0.825378 7.42771 1.53592 6.71111 2.24949C6.0478 2.90978 5.34406 4.07691 5.34406 5.37177Z" fill="#9D9E9E"/>
<path fill-rule="evenodd" clip-rule="evenodd" d="M20.3643 25.0533V34.2035L21.5155 34.2606C26.4092 34.2606 26.5525 28.9768 25.6401 27.0281C24.9046 25.4566 23.7137 24.9252 22.0344 24.8174L20.8386 24.8367C20.6473 24.8586 20.3643 24.836 20.3643 25.0533Z" fill="#9D9E9E"/>
<path fill-rule="evenodd" clip-rule="evenodd" d="M8.33667 24.8805V29.1389C9.96262 29.518 11.962 28.9503 11.962 26.8946C11.962 25.4781 10.9718 24.7653 9.54537 24.7653C9.0563 24.7653 8.73579 24.8715 8.33667 24.8805Z" fill="#9D9E9E"/>
</svg>
