<svg width="820" height="162" viewBox="0 0 820 162" fill="none" xmlns="http://www.w3.org/2000/svg">
<path fill-rule="evenodd" clip-rule="evenodd" d="M0.854065 153.809L153.816 153.828L153.776 80.388L74.3205 80.4084L74.2812 0.872027L0.856335 0.810425L0.882411 141.554L0.854065 153.809Z" fill="#2B2A29"/>
<path fill-rule="evenodd" clip-rule="evenodd" d="M83.4526 72.3546L151.535 72.8433L151.497 2.95496C138.935 2.10381 92.4225 0.431338 82.976 3.49011C81.5636 14.4027 81.2389 62.6926 83.4526 72.3546ZM83.4526 72.3546C81.2389 62.6926 81.5636 14.4027 82.976 3.49011C92.4225 0.431338 138.935 2.10381 151.497 2.95496L151.535 72.8433L83.4526 72.3546ZM79.9459 11.5836L80.099 74.5112L154.015 74.5134L154.026 0.937046L80.2328 0.68573L79.9459 11.5836Z" fill="#029FE2"/>
<path d="M195.836 74.0746H206.138V10.2887H231.111V1.23526H170.862V10.2887H195.836V74.0746ZM242.454 74.0746H252.86V1.23526H242.454V74.0746ZM352.287 74.0746L352.182 1.23526H343.649L313.663 52.4308L283.244 1.23526H274.712V74.0746H284.701V21.3189L311.045 65.229H315.849L342.193 21.0059L342.297 74.0746H352.287ZM374.086 74.0746H384.492V1.23526H374.086V74.0746ZM458.579 1.23526V55.5527L414.875 1.23526H406.343V74.0746H416.748V19.7572L460.452 74.0746H468.984V1.23526H458.579ZM541.306 60.9635C536.103 64.2932 530.379 65.6455 524.239 65.6455C507.487 65.6455 495.312 53.6796 495.312 37.6547C495.312 21.4221 507.487 9.66434 524.344 9.66434C532.565 9.66434 539.433 12.265 545.468 18.0923L551.92 11.6407C545.26 4.25357 535.479 0.402618 523.928 0.402618C501.347 0.402618 484.906 16.116 484.906 37.6547C484.906 59.1939 501.347 74.9072 523.72 74.9072C533.917 74.9072 544.011 71.7854 551.295 65.6455V37.2386H541.306V60.9635Z" fill="#169DDD"/>
<path d="M664.197 1.23526L644.115 60.7556L624.032 1.23526H614.458L593.959 60.4426L574.293 1.23526H563.574L587.923 74.0746H599.058L618.933 15.9078L638.808 74.0746H649.734L674.082 1.23526H664.197ZM697.184 65.0212V41.5042H733.708V32.6601H697.184V10.2887H738.182V1.23526H686.778V74.0746H739.639V65.0212H697.184ZM805.509 36.3013C811.231 33.4928 815.29 27.9784 815.29 20.0701C815.29 8.3109 805.925 1.23526 789.171 1.23526H756.497V74.0746H791.252C809.671 74.0746 819.14 66.8939 819.14 54.4071C819.14 44.7308 813.729 38.5906 805.509 36.3013ZM788.234 9.66434C798.849 9.66434 804.884 13.6185 804.884 21.3189C804.884 29.0189 798.849 32.9715 788.234 32.9715H766.903V9.66434H788.234ZM790.836 65.6455H766.903V41.401H790.836C802.387 41.401 808.631 45.1469 808.631 53.5749C808.631 62.0039 802.387 65.6455 790.836 65.6455Z" fill="#2B2A29"/>
<path d="M187.571 105.119H195.416V161.321H187.571V105.119ZM205.468 145.657C202.985 145.657 200.816 145.066 198.964 143.87C197.111 142.674 195.757 140.979 194.877 138.798L195.416 130.453C195.416 132.175 195.731 133.634 196.349 134.843C196.966 136.038 197.847 136.971 199.016 137.615C200.185 138.246 201.605 138.575 203.274 138.575C205.862 138.575 207.873 137.786 209.305 136.209C210.724 134.632 211.434 132.398 211.434 129.521V120.861C211.434 117.944 210.724 115.671 209.305 114.054C207.873 112.438 205.862 111.623 203.274 111.623C201.605 111.623 200.185 111.939 199.016 112.543C197.847 113.161 196.966 114.067 196.349 115.263C195.731 116.459 195.416 117.891 195.416 119.56L194.614 111.86C195.823 109.521 197.4 107.72 199.345 106.446C201.303 105.171 203.471 104.54 205.849 104.54C208.674 104.54 211.092 105.171 213.116 106.446C215.126 107.72 216.664 109.573 217.715 112.004C218.766 114.448 219.292 117.392 219.292 120.822V129.521C219.292 132.911 218.753 135.815 217.676 138.233C216.598 140.637 215.021 142.477 212.932 143.752C210.856 145.027 208.372 145.657 205.468 145.657Z" fill="#898989"/>
<path d="M253.024 119.744C253.024 117.129 252.314 115.092 250.921 113.647C249.515 112.201 247.544 111.465 244.969 111.465C243.379 111.465 241.815 111.715 240.29 112.201C238.766 112.687 237.413 113.371 236.23 114.238L230.501 110.309C232.012 108.496 234.009 107.076 236.48 106.065C238.963 105.053 241.71 104.54 244.745 104.54C248.057 104.54 250.882 105.119 253.247 106.288C255.613 107.458 257.413 109.153 258.635 111.374C259.87 113.594 260.488 116.275 260.488 119.402V145.079H253.024V119.744ZM243.234 145.657C238.307 145.657 234.627 144.632 232.196 142.596C229.752 140.559 228.53 137.458 228.53 133.305C228.53 129.35 229.647 126.38 231.881 124.409C234.115 122.425 237.492 121.439 242.012 121.439H253.365L253.904 127.76H242.051C239.988 127.76 238.464 128.207 237.439 129.126C236.427 130.033 235.928 131.426 235.928 133.305C235.928 135.329 236.598 136.827 237.952 137.799C239.292 138.785 241.342 139.271 244.088 139.271C247.084 139.271 249.331 138.942 250.803 138.299C252.275 137.668 253.024 136.656 253.024 135.303L253.825 140.927C253.129 142.004 252.275 142.885 251.263 143.581C250.251 144.264 249.082 144.79 247.741 145.132C246.414 145.487 244.903 145.657 243.234 145.657Z" fill="#898989"/>
<path d="M284.929 145.657C282.13 145.657 279.673 145.197 277.557 144.264C275.442 143.345 273.733 141.991 272.433 140.204C271.145 138.43 270.317 136.288 269.949 133.804H277.57C277.86 135.289 278.635 136.446 279.91 137.26C281.171 138.088 282.813 138.496 284.811 138.496C287.045 138.496 288.779 138.009 290.015 137.037C291.237 136.051 291.854 134.672 291.854 132.872V132.832C291.854 131.452 291.421 130.375 290.527 129.599C289.647 128.837 288.385 128.443 286.743 128.443H280.461V121.754H286.743C287.938 121.754 288.884 121.347 289.542 120.559C290.212 119.757 290.554 118.64 290.554 117.208V117.168C290.554 115.421 290.015 114.081 288.937 113.121C287.859 112.175 286.335 111.702 284.391 111.702C282.564 111.702 281.04 112.11 279.805 112.937C278.569 113.752 277.741 114.908 277.308 116.393H269.726C270.462 112.622 272.143 109.705 274.758 107.641C277.386 105.579 280.711 104.54 284.732 104.54C289.069 104.54 292.433 105.473 294.824 107.353C297.202 109.219 298.398 111.873 298.398 115.276V115.316C298.398 117.497 297.873 119.389 296.821 120.979C295.77 122.569 294.299 123.739 292.393 124.488C294.732 124.816 296.532 125.749 297.807 127.274C299.082 128.798 299.712 130.795 299.712 133.266V133.305C299.712 137.221 298.425 140.27 295.836 142.425C293.26 144.58 289.62 145.657 284.929 145.657Z" fill="#898989"/>
<path d="M309.922 105.119H317.768V161.321H309.922V105.119ZM327.82 145.657C325.336 145.657 323.168 145.066 321.315 143.87C319.463 142.674 318.109 140.979 317.229 138.798L317.768 130.453C317.768 132.175 318.083 133.634 318.7 134.843C319.318 136.038 320.199 136.971 321.368 137.615C322.537 138.246 323.957 138.575 325.626 138.575C328.214 138.575 330.225 137.786 331.657 136.209C333.076 134.632 333.786 132.398 333.786 129.521V120.861C333.786 117.944 333.076 115.671 331.657 114.054C330.225 112.438 328.214 111.623 325.626 111.623C323.957 111.623 322.537 111.939 321.368 112.543C320.199 113.161 319.318 114.067 318.7 115.263C318.083 116.459 317.768 117.891 317.768 119.56L316.966 111.86C318.175 109.521 319.752 107.72 321.696 106.446C323.655 105.171 325.823 104.54 328.201 104.54C331.026 104.54 333.444 105.171 335.468 106.446C337.478 107.72 339.016 109.573 340.067 112.004C341.118 114.448 341.644 117.392 341.644 120.822V129.521C341.644 132.911 341.105 135.815 340.028 138.233C338.95 140.637 337.373 142.477 335.284 143.752C333.208 145.027 330.724 145.657 327.82 145.657Z" fill="#898989"/>
<path d="M375.376 119.744C375.376 117.129 374.666 115.092 373.273 113.647C371.867 112.201 369.896 111.465 367.321 111.465C365.731 111.465 364.167 111.715 362.642 112.201C361.118 112.687 359.765 113.371 358.582 114.238L352.853 110.309C354.364 108.496 356.361 107.076 358.832 106.065C361.315 105.053 364.062 104.54 367.097 104.54C370.408 104.54 373.234 105.119 375.599 106.288C377.965 107.458 379.765 109.153 380.987 111.374C382.222 113.594 382.84 116.275 382.84 119.402V145.079H375.376V119.744ZM365.586 145.657C360.658 145.657 356.979 144.632 354.548 142.596C352.104 140.559 350.882 137.458 350.882 133.305C350.882 129.35 351.999 126.38 354.232 124.409C356.467 122.425 359.844 121.439 364.364 121.439H375.717L376.256 127.76H364.403C362.34 127.76 360.816 128.207 359.791 129.126C358.779 130.033 358.28 131.426 358.28 133.305C358.28 135.329 358.95 136.827 360.304 137.799C361.644 138.785 363.694 139.271 366.44 139.271C369.436 139.271 371.683 138.942 373.155 138.299C374.627 137.668 375.376 136.656 375.376 135.303L376.177 140.927C375.481 142.004 374.627 142.885 373.615 143.581C372.603 144.264 371.434 144.79 370.093 145.132C368.766 145.487 367.255 145.657 365.586 145.657Z" fill="#898989"/>
<path d="M411.25 145.657C407.78 145.657 404.811 144.974 402.353 143.621C399.883 142.254 398.004 140.27 396.716 137.668C395.415 135.066 394.771 131.925 394.771 128.259V123.292L400.317 115.171C400.921 112.188 402.288 109.928 404.377 108.39C406.466 106.853 409.265 106.078 412.787 106.078C415.915 106.078 418.608 106.748 420.855 108.101C423.103 109.455 424.798 111.413 425.967 113.988C427.136 116.577 427.728 119.665 427.728 123.292V128.377C427.728 132.017 427.071 135.132 425.783 137.707C424.482 140.283 422.603 142.254 420.133 143.621C417.675 144.974 414.706 145.657 411.25 145.657ZM411.21 138.193C413.957 138.193 416.086 137.339 417.597 135.631C419.108 133.923 419.87 131.505 419.87 128.377V123.292C419.87 120.178 419.108 117.786 417.597 116.091C416.086 114.396 413.957 113.555 411.21 113.555C408.49 113.555 406.374 114.396 404.877 116.091C403.378 117.786 402.616 120.178 402.616 123.292V128.377C402.616 131.505 403.378 133.923 404.877 135.631C406.374 137.339 408.49 138.193 411.21 138.193ZM394.771 108.969C394.771 105.355 395.402 102.346 396.677 99.9409C397.938 97.5364 399.843 95.7494 402.393 94.5536C404.929 93.3578 408.109 92.7402 411.933 92.6877C413.405 92.6612 414.614 92.5168 415.599 92.2409C416.572 91.9646 417.307 91.5704 417.793 91.0451C418.28 90.5193 418.517 89.8753 418.517 89.1001H425.796C425.796 91.3867 425.31 93.292 424.338 94.8163C423.365 96.3538 421.894 97.4839 419.949 98.2458C417.991 99.0081 415.547 99.3759 412.59 99.3759C410.277 99.3759 408.359 99.7047 406.834 100.362C405.31 101.018 404.167 101.991 403.392 103.292C402.616 104.58 402.235 106.222 402.235 108.194V123.752H394.771V108.969Z" fill="#898989"/>
<path d="M454.206 145.657C450.737 145.657 447.781 144.974 445.31 143.621C442.853 142.254 440.96 140.27 439.673 137.668C438.372 135.066 437.728 131.925 437.728 128.259V121.754C437.728 118.128 438.372 115.027 439.673 112.451C440.96 109.875 442.853 107.904 445.31 106.564C447.781 105.21 450.737 104.54 454.206 104.54C457.662 104.54 460.632 105.21 463.102 106.564C465.56 107.904 467.439 109.875 468.74 112.451C470.028 115.027 470.685 118.128 470.685 121.754V128.377C470.685 132.017 470.028 135.132 468.74 137.707C467.439 140.283 465.56 142.254 463.102 143.621C460.632 144.974 457.662 145.657 454.206 145.657ZM454.206 138.194C456.953 138.194 459.069 137.326 460.58 135.605C462.077 133.883 462.827 131.478 462.827 128.377V121.754C462.827 118.64 462.077 116.248 460.58 114.553C459.069 112.858 456.953 112.004 454.206 112.004C451.46 112.004 449.331 112.858 447.833 114.553C446.335 116.248 445.586 118.64 445.586 121.754V128.377C445.586 131.478 446.335 133.883 447.833 135.605C449.331 137.326 451.46 138.194 454.206 138.194Z" fill="#898989"/>
<path d="M488.424 109.31H496.282V145.079H488.424V109.31ZM476.834 105.119H507.872V112.201H476.834V105.119Z" fill="#898989"/>
<path d="M530.001 122.135L540.855 105.119H550.33L533.588 129.021L530.001 122.135ZM518.266 105.119H526.112V145.079H518.266V105.119ZM530.356 128.22L536.466 124.172L552.682 145.079H542.169L530.356 128.22ZM522.077 121.321H536.506V128.798H522.077V121.321Z" fill="#898989"/>
<path d="M581.407 119.744C581.407 117.129 580.697 115.092 579.305 113.647C577.898 112.201 575.927 111.465 573.352 111.465C571.762 111.465 570.198 111.715 568.674 112.201C567.149 112.687 565.796 113.371 564.613 114.238L558.884 110.309C560.395 108.496 562.392 107.076 564.863 106.065C567.347 105.053 570.093 104.54 573.129 104.54C576.44 104.54 579.265 105.119 581.631 106.288C583.996 107.458 585.796 109.153 587.018 111.374C588.253 113.594 588.871 116.275 588.871 119.402V145.079H581.407V119.744ZM571.617 145.657C566.69 145.657 563.01 144.632 560.579 142.596C558.135 140.559 556.913 137.458 556.913 133.305C556.913 129.35 558.03 126.38 560.264 124.409C562.498 122.425 565.875 121.439 570.395 121.439H581.749L582.287 127.76H570.435C568.372 127.76 566.847 128.207 565.822 129.126C564.811 130.033 564.311 131.426 564.311 133.305C564.311 135.329 564.981 136.827 566.335 137.799C567.675 138.785 569.725 139.271 572.471 139.271C575.467 139.271 577.715 138.942 579.186 138.299C580.658 137.668 581.407 136.656 581.407 135.303L582.208 140.927C581.512 142.004 580.658 142.885 579.646 143.581C578.634 144.264 577.465 144.79 576.125 145.132C574.797 145.487 573.286 145.657 571.617 145.657Z" fill="#898989"/>
<path d="M638.096 145.657C634.456 145.657 631.342 144.974 628.766 143.621C626.19 142.254 624.219 140.283 622.853 137.681C621.499 135.092 620.816 131.965 620.816 128.298V121.715C620.816 118.088 621.499 115 622.853 112.438C624.219 109.862 626.19 107.904 628.766 106.564C631.342 105.21 634.456 104.54 638.096 104.54C640.172 104.54 642.13 104.79 643.969 105.289C645.809 105.789 647.452 106.511 648.924 107.471C650.382 108.417 651.604 109.573 652.576 110.927L646.913 116.012C645.783 114.724 644.469 113.739 642.945 113.042C641.433 112.359 639.856 112.004 638.214 112.004C635.192 112.004 632.839 112.858 631.171 114.553C629.502 116.248 628.674 118.627 628.674 121.715V128.298C628.674 131.452 629.502 133.883 631.144 135.605C632.8 137.326 635.165 138.194 638.214 138.194C639.883 138.194 641.473 137.812 642.984 137.076C644.508 136.328 645.809 135.276 646.913 133.909L652.576 139.376C651.578 140.716 650.343 141.846 648.884 142.792C647.413 143.726 645.77 144.435 643.93 144.921C642.091 145.407 640.159 145.657 638.096 145.657Z" fill="#898989"/>
<path d="M683.798 119.744C683.798 117.129 683.089 115.092 681.696 113.647C680.29 112.201 678.319 111.465 675.743 111.465C674.153 111.465 672.59 111.715 671.065 112.201C669.541 112.687 668.187 113.371 667.005 114.238L661.275 110.309C662.787 108.496 664.784 107.076 667.255 106.065C669.738 105.053 672.484 104.54 675.52 104.54C678.831 104.54 681.657 105.119 684.022 106.288C686.387 107.458 688.187 109.153 689.409 111.374C690.645 113.594 691.263 116.275 691.263 119.402V145.079H683.798V119.744ZM674.009 145.657C669.081 145.657 665.402 144.632 662.971 142.596C660.527 140.559 659.304 137.458 659.304 133.305C659.304 129.35 660.422 126.38 662.655 124.409C664.889 122.425 668.266 121.439 672.787 121.439H684.14L684.679 127.76H672.826C670.763 127.76 669.239 128.207 668.214 129.126C667.202 130.033 666.703 131.426 666.703 133.305C666.703 135.329 667.373 136.827 668.726 137.799C670.067 138.785 672.117 139.271 674.863 139.271C677.859 139.271 680.106 138.942 681.578 138.299C683.05 137.668 683.798 136.656 683.798 135.303L684.6 140.927C683.904 142.004 683.05 142.885 682.038 143.581C681.026 144.264 679.856 144.79 678.516 145.132C677.189 145.487 675.678 145.657 674.009 145.657Z" fill="#898989"/>
<path d="M728.293 145.04V116.669L729.212 117.668L710.001 145.04H703.194V105.119H710.974V134.146L710.04 133.147L729.331 105.119H736.072V145.04H728.293ZM719.278 97.5364C715.455 97.5364 712.59 96.3799 710.684 94.0936C708.766 91.7938 707.807 88.351 707.807 83.7521H714.127C714.127 86.3142 714.548 88.2327 715.415 89.5076C716.269 90.782 717.57 91.4128 719.278 91.4128H719.975C721.696 91.4128 722.984 90.782 723.851 89.5076C724.705 88.2327 725.139 86.3142 725.139 83.7521H731.446C731.446 88.351 730.487 91.7938 728.582 94.0936C726.663 96.3799 723.799 97.5364 719.975 97.5364H719.278Z" fill="#898989"/>
<path d="M755.349 109.31H763.207V145.079H755.349V109.31ZM743.759 105.119H774.797V112.201H743.759V105.119Z" fill="#898989"/>
<path d="M807.754 119.744C807.754 117.129 807.044 115.092 805.651 113.647C804.245 112.201 802.274 111.465 799.699 111.465C798.109 111.465 796.545 111.715 795.02 112.201C793.496 112.687 792.143 113.371 790.96 114.238L785.231 110.309C786.742 108.496 788.739 107.076 791.21 106.065C793.693 105.053 796.44 104.54 799.475 104.54C802.786 104.54 805.612 105.119 807.977 106.288C810.343 107.458 812.143 109.153 813.365 111.374C814.6 113.594 815.218 116.275 815.218 119.402V145.079H807.754V119.744ZM797.964 145.657C793.036 145.657 789.357 144.632 786.926 142.596C784.482 140.559 783.26 137.458 783.26 133.305C783.26 129.35 784.377 126.38 786.611 124.409C788.845 122.425 792.222 121.439 796.742 121.439H808.095L808.634 127.76H796.781C794.718 127.76 793.194 128.207 792.169 129.126C791.157 130.033 790.658 131.426 790.658 133.305C790.658 135.329 791.328 136.827 792.682 137.799C794.022 138.785 796.072 139.271 798.818 139.271C801.814 139.271 804.061 138.942 805.533 138.299C807.005 137.668 807.754 136.656 807.754 135.303L808.555 140.927C807.859 142.004 807.005 142.885 805.993 143.581C804.981 144.264 803.811 144.79 802.471 145.132C801.144 145.487 799.633 145.657 797.964 145.657Z" fill="#898989"/>
</svg>
