<svg width="47" height="46" viewBox="0 0 47 46" fill="none" xmlns="http://www.w3.org/2000/svg">
<path fill-rule="evenodd" clip-rule="evenodd" d="M7.86423 40.8888V38.4143H38.9403C38.9403 39.3063 39.0589 41.0838 38.7501 41.7347C38.3881 42.4985 37.6405 43.1335 36.7534 43.1335H10.0511C8.92779 43.1335 7.86423 42.0143 7.86423 40.8888ZM7.86423 4.74857C7.86423 3.85472 8.46064 3.09164 9.2241 2.71331C9.4864 2.5833 9.79708 2.50393 10.166 2.50393H29.3875V7.51106C29.3875 8.81764 30.1154 9.99494 30.7825 10.662C31.4591 11.3382 32.6647 12.0574 33.991 12.0574H38.9403V19.1932H7.86423V4.74857ZM5.44684 4.63368V19.1932C3.44294 19.1932 1.90769 18.8648 0.945427 20.4465C0.847159 20.6075 0.670654 21.0849 0.670654 21.3222V36.2275C0.670654 37.3417 1.77126 38.4143 3.20256 38.4143H5.44684V41.0615C5.44684 42.4256 6.13887 43.4419 6.98624 44.2991C7.87935 45.2028 9.15683 45.6079 10.5114 45.6079H36.2927C38.2573 45.6079 39.9758 44.6921 40.8395 42.9607C41.1029 42.4316 41.3573 41.8488 41.3573 41.0615V38.4143H43.6016C45.1678 38.4143 46.1913 37.3383 46.1913 35.7672V21.8404C46.1913 20.2692 45.1678 19.1932 43.6016 19.1932H41.3573V9.69787C41.3573 9.52401 40.9498 9.20388 40.8247 9.07916L32.3937 0.648193C32.2664 0.520445 31.9224 0.0872803 31.7463 0.0872803H9.82089C8.70102 0.0872803 7.53049 0.797857 6.8139 1.51143C6.15059 2.17171 5.44684 3.33881 5.44684 4.63368Z" fill="#9D9E9E"/>
<path d="M5.20911 22.8295H8.23802L10.3557 30.2079L12.8778 22.8295H14.7403L17.2624 30.2079L19.3801 22.8295H22.4052L18.7239 34.7769H16.3746L13.809 26.9862L11.2435 34.7769H8.89415L5.20911 22.8295Z" fill="#FEFEFE"/>
<path d="M24.9628 24.031H42.3154" stroke="#FEFEFE" stroke-width="1.00006" stroke-miterlimit="22.9256"/>
<path d="M24.9628 28.927H42.3154" stroke="#FEFEFE" stroke-width="1.00006" stroke-miterlimit="22.9256"/>
<path d="M24.9628 33.823H42.3154" stroke="#FEFEFE" stroke-width="1.00006" stroke-miterlimit="22.9256"/>
</svg>
